<svg width="2361" height="2500" viewBox="0 0 2361 2500" fill="none" xmlns="http://www.w3.org/2000/svg">
<g clip-path="url(#clip0_1_22)">
<path d="M2332.1 1180.85L1269.1 117.864L1166.1 14.8618L365.91 815.055L2.86102e-05 1180.85C-18.277 1199.23 -28.537 1224.09 -28.537 1250C-28.537 1275.91 -18.277 1300.77 2.86102e-05 1319.15L731.047 2050.19L1166.1 2485.14L1966.19 1684.95L1978.65 1672.59L2332.1 1319.7C2341.25 1310.6 2348.52 1299.79 2353.48 1287.88C2358.45 1275.96 2361 1263.18 2361 1250.28C2361 1237.37 2358.45 1224.59 2353.48 1212.68C2348.52 1200.76 2341.25 1189.95 2332.1 1180.85ZM1166.1 1615.25L800.855 1250L1166.1 884.752L1531.24 1250L1166.1 1615.25Z" fill="#2684FF"/>
<path d="M1166.1 884.752C1051.23 769.908 986.478 614.273 985.982 451.842C985.486 289.41 1049.29 133.382 1163.46 17.8394L364.255 816.709L799.201 1251.65L1166.1 884.752Z" fill="url(#paint0_linear_1_22)"/>
<path d="M1532.23 1249.01L1166.1 1615.25C1281.41 1730.58 1346.18 1887 1346.18 2050.08C1346.18 2213.17 1281.41 2369.58 1166.1 2484.92L1967.51 1683.95L1532.23 1249.01Z" fill="url(#paint1_linear_1_22)"/>
</g>
<g clip-path="url(#clip1_1_22)">
<g filter="url(#filter0_d_1_22)">
<path d="M1034 1627.06C1034 1379.05 1232 1176.12 1474 1176.12C1531.2 1176.12 1584 1189.65 1632.4 1207.69L1676.4 1162.6C1685.2 1153.58 1689.6 1140.05 1689.6 1131.03V928.109C1694 788.319 1372.8 725.188 1078 725.188C783.2 725.188 462 788.319 462 928.109V1131.03C462 1144.56 466.4 1158.09 475.2 1162.6L946 1600.01V1942.72C946 1956.25 954.8 1974.28 968 1983.3C972.4 1987.81 981.2 1987.81 990 1987.81C998.8 1987.81 1003.2 1987.81 1007.6 1983.3L1135.2 1915.66C1073.6 1839 1034 1739.8 1034 1627.06ZM550 928.109C554.4 896.544 726 815.375 1078 815.375C1430 815.375 1601.6 896.544 1606 928.109C1601.6 959.675 1430 1040.84 1078 1040.84C726 1040.84 554.4 959.675 550 928.109Z" fill="#DDDEC7"/>
</g>
<path d="M1223.2 1370.03C1364 1230.24 1584 1230.24 1720.4 1370.03C1856.8 1509.82 1856.8 1739.8 1720.4 1879.59C1584 2019.38 1359.6 2019.38 1223.2 1879.59C1086.8 1739.8 1086.8 1509.82 1223.2 1370.03ZM1597.2 1500.8C1579.6 1482.76 1553.2 1482.76 1535.6 1500.8L1474 1563.93L1412.4 1500.8C1394.8 1482.76 1368.4 1482.76 1350.8 1500.8C1333.2 1518.84 1333.2 1545.89 1350.8 1563.93L1412.4 1627.06L1350.8 1690.19C1333.2 1708.23 1333.2 1735.29 1350.8 1753.32C1368.4 1771.36 1394.8 1771.36 1412.4 1753.32L1474 1690.19L1535.6 1753.32C1553.2 1771.36 1579.6 1771.36 1597.2 1753.32C1614.8 1735.29 1614.8 1708.23 1597.2 1690.19L1535.6 1627.06L1597.2 1563.93C1614.8 1545.89 1614.8 1518.84 1597.2 1500.8Z" fill="#DDDEC7"/>
<path d="M1223.2 1370.03C1364 1230.24 1584 1230.24 1720.4 1370.03C1856.8 1509.82 1856.8 1739.8 1720.4 1879.59C1584 2019.38 1359.6 2019.38 1223.2 1879.59C1086.8 1739.8 1086.8 1509.82 1223.2 1370.03ZM1597.2 1500.8C1579.6 1482.76 1553.2 1482.76 1535.6 1500.8L1474 1563.93L1412.4 1500.8C1394.8 1482.76 1368.4 1482.76 1350.8 1500.8C1333.2 1518.84 1333.2 1545.89 1350.8 1563.93L1412.4 1627.06L1350.8 1690.19C1333.2 1708.23 1333.2 1735.29 1350.8 1753.32C1368.4 1771.36 1394.8 1771.36 1412.4 1753.32L1474 1690.19L1535.6 1753.32C1553.2 1771.36 1579.6 1771.36 1597.2 1753.32C1614.8 1735.29 1614.8 1708.23 1597.2 1690.19L1535.6 1627.06L1597.2 1563.93C1614.8 1545.89 1614.8 1518.84 1597.2 1500.8Z" stroke="black"/>
</g>
<defs>
<filter id="filter0_d_1_22" x="458" y="725.188" width="1235.64" height="1270.62" filterUnits="userSpaceOnUse" color-interpolation-filters="sRGB">
<feFlood flood-opacity="0" result="BackgroundImageFix"/>
<feColorMatrix in="SourceAlpha" type="matrix" values="0 0 0 0 0 0 0 0 0 0 0 0 0 0 0 0 0 0 127 0" result="hardAlpha"/>
<feOffset dy="4"/>
<feGaussianBlur stdDeviation="2"/>
<feComposite in2="hardAlpha" operator="out"/>
<feColorMatrix type="matrix" values="0 0 0 0 0 0 0 0 0 0 0 0 0 0 0 0 0 0 0.25 0"/>
<feBlend mode="normal" in2="BackgroundImageFix" result="effect1_dropShadow_1_22"/>
<feBlend mode="normal" in="SourceGraphic" in2="effect1_dropShadow_1_22" result="shape"/>
</filter>
<linearGradient id="paint0_linear_1_22" x1="1100.71" y1="515.203" x2="590.661" y2="1025.14" gradientUnits="userSpaceOnUse">
<stop offset="0.18" stop-color="#0052CC"/>
<stop offset="1" stop-color="#2684FF"/>
</linearGradient>
<linearGradient id="paint1_linear_1_22" x1="1235.8" y1="1980.39" x2="1744.85" y2="1471.44" gradientUnits="userSpaceOnUse">
<stop offset="0.18" stop-color="#0052CC"/>
<stop offset="1" stop-color="#2684FF"/>
</linearGradient>
<clipPath id="clip0_1_22">
<rect width="2361" height="2500" fill="white"/>
</clipPath>
<clipPath id="clip1_1_22">
<rect width="1408" height="1443" fill="white" transform="translate(462 635)"/>
</clipPath>
</defs>
</svg>
